# xmcd CD database file
#
# Track frame offsets:
#	150
#	37377
#	71370
#	106445
#	150940
#	182254
#	209771
#	245113
#	275931
#	298109
#
# Disc length: 4388 seconds
#
# Revision: 0
# Processed by: cddbd v1.5.1PL0 Copyright (c) Steve Scherf et al.
# Submitted via: CDex 1.60beta1
#
DISCID=9e11220a
DTITLE=Melvin Rhyne Quartet - Classmasters
DYEAR=1999
DGENRE=Jazz
TTITLE0=Rhyne Rhythm And Song
TTITLE1=Watch What Happens
TTITLE2=What Are You Doing The Rest Of Your Life
TTITLE3=Stanley'S Shuffle
TTITLE4=Don'T Explain
TTITLE5=Well You Needn'T
TTITLE6=Oriental Flower
TTITLE7=Search For Peace
TTITLE8=Like Sonny
TTITLE9=What Is This Thing Called Love
EXTD=YEAR: 1999
EXTT0=
EXTT1=
EXTT2=
EXTT3=
EXTT4=
EXTT5=
EXTT6=
EXTT7=
EXTT8=
EXTT9=
PLAYORDER=
